G04*
G04 #@! TF.GenerationSoftware,Altium Limited,Altium Designer,21.8.1 (53)*
G04*
G04 Layer_Color=32768*
%FSLAX25Y25*%
%MOIN*%
G70*
G04*
G04 #@! TF.SameCoordinates,15BDF6F2-E804-41EB-80EB-1D885EA959A2*
G04*
G04*
G04 #@! TF.FilePolarity,Positive*
G04*
G01*
G75*
%ADD110C,0.00200*%
%ADD112C,0.00197*%
%ADD113C,0.00394*%
D110*
X445390Y309547D02*
X444890Y310413D01*
X443890D01*
X443390Y309547D01*
X443890Y308681D01*
X444890D01*
X445390Y309547D01*
X483284Y113189D02*
X482784Y114055D01*
X481783D01*
X481284Y113189D01*
X481783Y112323D01*
X482784D01*
X483284Y113189D01*
X483441Y136811D02*
X482941Y137677D01*
X481941D01*
X481441Y136811D01*
X481941Y135945D01*
X482941D01*
X483441Y136811D01*
X350528Y252953D02*
X350028Y253819D01*
X349028D01*
X348528Y252953D01*
X349028Y252087D01*
X350028D01*
X350528Y252953D01*
X379346Y155709D02*
X378847Y156575D01*
X377847D01*
X377346Y155709D01*
X377847Y154843D01*
X378847D01*
X379346Y155709D01*
X483441Y160433D02*
X482941Y161299D01*
X481941D01*
X481441Y160433D01*
X481941Y159567D01*
X482941D01*
X483441Y160433D01*
X483284Y184055D02*
X482784Y184921D01*
X481783D01*
X481284Y184055D01*
X481783Y183189D01*
X482784D01*
X483284Y184055D01*
X483441Y207677D02*
X482941Y208543D01*
X481941D01*
X481441Y207677D01*
X481941Y206811D01*
X482941D01*
X483441Y207677D01*
X483283Y231299D02*
X482783Y232165D01*
X481783D01*
X481283Y231299D01*
X481783Y230433D01*
X482783D01*
X483283Y231299D01*
X483441Y254921D02*
X482941Y255787D01*
X481941D01*
X481441Y254921D01*
X481941Y254055D01*
X482941D01*
X483441Y254921D01*
X483284Y278543D02*
X482784Y279409D01*
X481783D01*
X481284Y278543D01*
X481783Y277677D01*
X482784D01*
X483284Y278543D01*
X483283Y302165D02*
X482783Y303031D01*
X481783D01*
X481283Y302165D01*
X481783Y301299D01*
X482783D01*
X483283Y302165D01*
X483441Y325787D02*
X482941Y326654D01*
X481941D01*
X481441Y325787D01*
X481941Y324921D01*
X482941D01*
X483441Y325787D01*
X344583Y210630D02*
X344083Y211496D01*
X343083D01*
X342583Y210630D01*
X343083Y209764D01*
X344083D01*
X344583Y210630D01*
X391445Y293307D02*
X390695Y293740D01*
Y292874D01*
X391445Y293307D01*
X442890Y309547D02*
X445890D01*
X444390Y308047D02*
Y311047D01*
X434495Y294547D02*
Y324547D01*
X454295D01*
Y294547D02*
Y324547D01*
X434495Y294547D02*
X454295D01*
X342893Y277682D02*
Y314082D01*
Y277682D02*
X370593D01*
Y314082D01*
X342893D02*
X370593D01*
X482283Y111189D02*
Y115189D01*
X480283Y113189D02*
X484283D01*
X497284Y108189D02*
Y118189D01*
X467283D02*
X497284D01*
X467283Y108189D02*
Y118189D01*
Y108189D02*
X497284D01*
X467441Y131811D02*
X497441D01*
X467441D02*
Y141811D01*
X497441D01*
Y131811D02*
Y141811D01*
X480441Y136811D02*
X484441D01*
X482441Y134811D02*
Y138811D01*
X329528Y247953D02*
X369528D01*
X329528Y257953D02*
X369528D01*
Y247953D02*
Y257953D01*
X347528Y252953D02*
X351528D01*
X349528Y250953D02*
Y254953D01*
X329528Y247953D02*
Y257953D01*
X376346Y155709D02*
X380346D01*
X378346Y153709D02*
Y157709D01*
X383347Y126809D02*
Y185709D01*
X373346Y126809D02*
Y185709D01*
X383347D01*
X373346Y126809D02*
X383347D01*
X482441Y158433D02*
Y162433D01*
X480441Y160433D02*
X484441D01*
X497441Y155433D02*
Y165433D01*
X467441D02*
X497441D01*
X467441Y155433D02*
Y165433D01*
Y155433D02*
X497441D01*
X482283Y182055D02*
Y186055D01*
X480283Y184055D02*
X484283D01*
X497284Y179055D02*
Y189055D01*
X467283D02*
X497284D01*
X467283Y179055D02*
Y189055D01*
Y179055D02*
X497284D01*
X482441Y205677D02*
Y209677D01*
X480441Y207677D02*
X484441D01*
X497441Y202677D02*
Y212677D01*
X467441D02*
X497441D01*
X467441Y202677D02*
Y212677D01*
Y202677D02*
X497441D01*
X482283Y229299D02*
Y233299D01*
X480283Y231299D02*
X484283D01*
X497283Y226299D02*
Y236299D01*
X467283D02*
X497283D01*
X467283Y226299D02*
Y236299D01*
Y226299D02*
X497283D01*
X482441Y252921D02*
Y256921D01*
X480441Y254921D02*
X484441D01*
X497441Y249921D02*
Y259921D01*
X467441D02*
X497441D01*
X467441Y249921D02*
Y259921D01*
Y249921D02*
X497441D01*
X482283Y276543D02*
Y280543D01*
X480283Y278543D02*
X484283D01*
X497284Y273543D02*
Y283543D01*
X467283D02*
X497284D01*
X467283Y273543D02*
Y283543D01*
Y273543D02*
X497284D01*
X482283Y300165D02*
Y304165D01*
X480283Y302165D02*
X484283D01*
X497283Y297165D02*
Y307165D01*
X467283D02*
X497283D01*
X467283Y297165D02*
Y307165D01*
Y297165D02*
X497283D01*
X482441Y323787D02*
Y327787D01*
X480441Y325787D02*
X484441D01*
X497441Y320787D02*
Y330787D01*
X467441D02*
X497441D01*
X467441Y320787D02*
Y330787D01*
Y320787D02*
X497441D01*
X333583Y205630D02*
X353583D01*
X333583D02*
Y215630D01*
X353583D01*
Y205630D02*
Y215630D01*
X343583Y208630D02*
Y212630D01*
X341583Y210630D02*
X345583D01*
X416859Y227356D02*
X453746Y264243D01*
X416859Y301129D02*
X453746Y264243D01*
X379973Y264243D02*
X416859Y301129D01*
X379973Y264243D02*
X416859Y227356D01*
X390238Y292600D02*
X391652Y294014D01*
X390238Y294014D02*
X391652Y292600D01*
X387604Y278274D02*
X405978Y296648D01*
X375912Y289966D02*
X387604Y278274D01*
X375912Y289966D02*
X394285Y308340D01*
X405978Y296648D01*
D112*
X339961Y197244D02*
X339638Y198130D01*
X338822Y198601D01*
X337894Y198437D01*
X337288Y197715D01*
Y196773D01*
X337894Y196051D01*
X338822Y195887D01*
X339638Y196358D01*
X339961Y197244D01*
X328161Y329820D02*
X327839Y330706D01*
X327023Y331177D01*
X326094Y331014D01*
X325488Y330292D01*
Y329349D01*
X326094Y328627D01*
X327023Y328463D01*
X327839Y328935D01*
X328161Y329820D01*
X402477Y282579D02*
X401727Y283012D01*
Y282146D01*
X402477Y282579D01*
X396858Y200000D02*
X396108Y200433D01*
Y199567D01*
X396858Y200000D01*
X373630Y193405D02*
X372880Y193839D01*
Y192973D01*
X373630Y193405D01*
X379831Y199409D02*
X379081Y199843D01*
Y198976D01*
X379831Y199409D01*
X412114Y291724D02*
X411364Y292157D01*
Y291291D01*
X412114Y291724D01*
X403694Y249946D02*
X402945Y250379D01*
Y249513D01*
X403694Y249946D01*
X429535Y280217D02*
X428785Y280649D01*
Y279784D01*
X429535Y280217D01*
X440854Y270079D02*
X440104Y270512D01*
Y269646D01*
X440854Y270079D01*
X433177Y251378D02*
X432427Y251811D01*
Y250945D01*
X433177Y251378D01*
X451673Y284744D02*
X451351Y285630D01*
X450535Y286101D01*
X449606Y285937D01*
X449000Y285215D01*
Y284273D01*
X449606Y283551D01*
X450535Y283387D01*
X451351Y283858D01*
X451673Y284744D01*
X447638Y304035D02*
X447315Y304921D01*
X446499Y305393D01*
X445571Y305229D01*
X444965Y304507D01*
Y303564D01*
X445571Y302842D01*
X446499Y302678D01*
X447315Y303150D01*
X447638Y304035D01*
X447744Y297933D02*
X446994Y298366D01*
Y297500D01*
X447744Y297933D01*
X263583Y296850D02*
X263260Y297736D01*
X262444Y298207D01*
X261516Y298044D01*
X260910Y297322D01*
Y296379D01*
X261516Y295657D01*
X262444Y295493D01*
X263260Y295965D01*
X263583Y296850D01*
X302953Y332283D02*
X302630Y333169D01*
X301814Y333641D01*
X300886Y333477D01*
X300280Y332755D01*
Y331812D01*
X300886Y331090D01*
X301814Y330926D01*
X302630Y331398D01*
X302953Y332283D01*
Y319685D02*
X302630Y320571D01*
X301814Y321042D01*
X300886Y320878D01*
X300280Y320156D01*
Y319214D01*
X300886Y318492D01*
X301814Y318328D01*
X302630Y318799D01*
X302953Y319685D01*
X302756Y307087D02*
X302433Y307972D01*
X301617Y308444D01*
X300689Y308280D01*
X300083Y307558D01*
Y306615D01*
X300689Y305893D01*
X301617Y305730D01*
X302433Y306201D01*
X302756Y307087D01*
X280118Y268898D02*
X279796Y269783D01*
X278979Y270255D01*
X278051Y270091D01*
X277445Y269369D01*
Y268426D01*
X278051Y267704D01*
X278979Y267541D01*
X279796Y268012D01*
X280118Y268898D01*
X343012Y337894D02*
X342689Y338779D01*
X341873Y339251D01*
X340945Y339087D01*
X340339Y338365D01*
Y337422D01*
X340945Y336700D01*
X341873Y336537D01*
X342689Y337008D01*
X343012Y337894D01*
X350197Y337795D02*
X349874Y338681D01*
X349058Y339152D01*
X348130Y338989D01*
X347524Y338267D01*
Y337324D01*
X348130Y336602D01*
X349058Y336438D01*
X349874Y336910D01*
X350197Y337795D01*
X513189Y128937D02*
X512867Y129823D01*
X512050Y130294D01*
X511122Y130130D01*
X510516Y129408D01*
Y128466D01*
X511122Y127744D01*
X512050Y127580D01*
X512867Y128051D01*
X513189Y128937D01*
X513189Y319882D02*
X512867Y320768D01*
X512050Y321239D01*
X511122Y321075D01*
X510516Y320353D01*
Y319411D01*
X511122Y318689D01*
X512050Y318525D01*
X512867Y318996D01*
X513189Y319882D01*
Y341535D02*
X512867Y342421D01*
X512050Y342893D01*
X511122Y342729D01*
X510516Y342007D01*
Y341064D01*
X511122Y340342D01*
X512050Y340178D01*
X512867Y340650D01*
X513189Y341535D01*
X513189Y294291D02*
X512867Y295177D01*
X512050Y295648D01*
X511122Y295485D01*
X510516Y294763D01*
Y293820D01*
X511122Y293098D01*
X512050Y292934D01*
X512867Y293406D01*
X513189Y294291D01*
X513189Y270669D02*
X512867Y271555D01*
X512050Y272026D01*
X511122Y271863D01*
X510516Y271141D01*
Y270198D01*
X511122Y269476D01*
X512050Y269312D01*
X512867Y269784D01*
X513189Y270669D01*
Y247047D02*
X512867Y247933D01*
X512050Y248404D01*
X511122Y248241D01*
X510516Y247518D01*
Y246576D01*
X511122Y245854D01*
X512050Y245690D01*
X512867Y246162D01*
X513189Y247047D01*
Y223425D02*
X512867Y224311D01*
X512050Y224782D01*
X511122Y224619D01*
X510516Y223897D01*
Y222954D01*
X511122Y222232D01*
X512050Y222068D01*
X512867Y222539D01*
X513189Y223425D01*
Y199803D02*
X512867Y200689D01*
X512050Y201160D01*
X511122Y200996D01*
X510516Y200274D01*
Y199332D01*
X511122Y198610D01*
X512050Y198446D01*
X512867Y198917D01*
X513189Y199803D01*
Y176181D02*
X512867Y177067D01*
X512050Y177538D01*
X511122Y177374D01*
X510516Y176652D01*
Y175710D01*
X511122Y174988D01*
X512050Y174824D01*
X512867Y175295D01*
X513189Y176181D01*
X513189Y152559D02*
X512867Y153445D01*
X512050Y153916D01*
X511122Y153752D01*
X510516Y153030D01*
Y152088D01*
X511122Y151366D01*
X512050Y151202D01*
X512867Y151673D01*
X513189Y152559D01*
X463976Y115157D02*
X463654Y116043D01*
X462838Y116515D01*
X461909Y116351D01*
X461304Y115629D01*
Y114686D01*
X461909Y113964D01*
X462838Y113801D01*
X463654Y114272D01*
X463976Y115157D01*
Y138779D02*
X463654Y139665D01*
X462838Y140137D01*
X461909Y139973D01*
X461304Y139251D01*
Y138308D01*
X461909Y137586D01*
X462838Y137423D01*
X463654Y137894D01*
X463976Y138779D01*
Y162402D02*
X463654Y163287D01*
X462838Y163759D01*
X461909Y163595D01*
X461304Y162873D01*
Y161930D01*
X461909Y161208D01*
X462838Y161045D01*
X463654Y161516D01*
X463976Y162402D01*
X463583Y198425D02*
X463260Y199311D01*
X462444Y199782D01*
X461516Y199618D01*
X460910Y198897D01*
Y197954D01*
X461516Y197232D01*
X462444Y197068D01*
X463260Y197539D01*
X463583Y198425D01*
X463976Y209646D02*
X463654Y210531D01*
X462838Y211003D01*
X461909Y210839D01*
X461304Y210117D01*
Y209174D01*
X461909Y208452D01*
X462838Y208289D01*
X463654Y208760D01*
X463976Y209646D01*
Y233268D02*
X463654Y234153D01*
X462838Y234625D01*
X461909Y234461D01*
X461304Y233739D01*
Y232796D01*
X461909Y232074D01*
X462838Y231911D01*
X463654Y232382D01*
X463976Y233268D01*
Y256890D02*
X463654Y257775D01*
X462838Y258247D01*
X461909Y258083D01*
X461304Y257361D01*
Y256418D01*
X461909Y255696D01*
X462838Y255533D01*
X463654Y256004D01*
X463976Y256890D01*
Y280512D02*
X463654Y281398D01*
X462838Y281869D01*
X461909Y281705D01*
X461304Y280983D01*
Y280041D01*
X461909Y279318D01*
X462838Y279155D01*
X463654Y279626D01*
X463976Y280512D01*
Y304134D02*
X463654Y305020D01*
X462838Y305491D01*
X461909Y305327D01*
X461304Y304605D01*
Y303663D01*
X461909Y302941D01*
X462838Y302777D01*
X463654Y303248D01*
X463976Y304134D01*
Y327756D02*
X463654Y328642D01*
X462838Y329113D01*
X461909Y328949D01*
X461304Y328227D01*
Y327285D01*
X461909Y326563D01*
X462838Y326399D01*
X463654Y326870D01*
X463976Y327756D01*
X299713Y273228D02*
X298963Y273661D01*
Y272795D01*
X299713Y273228D01*
X265362Y284842D02*
X264612Y285276D01*
Y284409D01*
X265362Y284842D01*
X315563Y329820D02*
X315241Y330706D01*
X314424Y331177D01*
X313496Y331014D01*
X312890Y330292D01*
Y329349D01*
X313496Y328627D01*
X314424Y328463D01*
X315241Y328935D01*
X315563Y329820D01*
X408858Y225984D02*
X408536Y226870D01*
X407720Y227341D01*
X406791Y227178D01*
X406185Y226455D01*
Y225513D01*
X406791Y224791D01*
X407720Y224627D01*
X408536Y225098D01*
X408858Y225984D01*
X397047Y222441D02*
X396725Y223327D01*
X395909Y223798D01*
X394980Y223634D01*
X394374Y222912D01*
Y221970D01*
X394980Y221248D01*
X395909Y221084D01*
X396725Y221555D01*
X397047Y222441D01*
X375394Y225984D02*
X375071Y226870D01*
X374255Y227341D01*
X373327Y227178D01*
X372721Y226455D01*
Y225513D01*
X373327Y224791D01*
X374255Y224627D01*
X375071Y225098D01*
X375394Y225984D01*
X387205Y222441D02*
X386882Y223327D01*
X386066Y223798D01*
X385138Y223634D01*
X384532Y222912D01*
Y221970D01*
X385138Y221248D01*
X386066Y221084D01*
X386882Y221555D01*
X387205Y222441D01*
X337795Y185433D02*
X337473Y186319D01*
X336657Y186790D01*
X335728Y186626D01*
X335122Y185904D01*
Y184962D01*
X335728Y184240D01*
X336657Y184076D01*
X337473Y184547D01*
X337795Y185433D01*
X402665Y304528D02*
X401915Y304961D01*
Y304095D01*
X402665Y304528D01*
X381012Y282874D02*
X380262Y283307D01*
Y282441D01*
X381012Y282874D01*
X299803Y296850D02*
X299481Y297736D01*
X298664Y298207D01*
X297736Y298044D01*
X297130Y297322D01*
Y296379D01*
X297736Y295657D01*
X298664Y295493D01*
X299481Y295965D01*
X299803Y296850D01*
X365450Y317728D02*
X365128Y318614D01*
X364312Y319085D01*
X363384Y318922D01*
X362778Y318199D01*
Y317257D01*
X363384Y316535D01*
X364312Y316371D01*
X365128Y316843D01*
X365450Y317728D01*
X350894Y314173D02*
X350144Y314606D01*
Y313740D01*
X350894Y314173D01*
X457087Y116929D02*
Y131102D01*
X472047D01*
Y116929D02*
Y131102D01*
X457087Y116929D02*
X472047D01*
X457087Y140551D02*
Y154724D01*
X472047D01*
Y140551D02*
Y154724D01*
X457087Y140551D02*
X472047D01*
X457087Y164173D02*
Y178347D01*
X472047D01*
Y164173D02*
Y178347D01*
X457087Y164173D02*
X472047D01*
X457087Y187795D02*
Y201969D01*
X472047D01*
Y187795D02*
Y201969D01*
X457087Y187795D02*
X472047D01*
X457087Y211417D02*
Y225590D01*
X472047D01*
Y211417D02*
Y225590D01*
X457087Y211417D02*
X472047D01*
X457087Y235039D02*
X472047D01*
Y249213D01*
X457087D02*
X472047D01*
X457087Y235039D02*
Y249213D01*
Y258661D02*
Y272835D01*
X472047D01*
Y258661D02*
Y272835D01*
X457087Y258661D02*
X472047D01*
X457087Y282283D02*
Y296457D01*
X472047D01*
Y282283D02*
Y296457D01*
X457087Y282283D02*
X472047D01*
X457087Y305906D02*
Y320079D01*
X472047D01*
Y305906D02*
Y320079D01*
X457087Y305906D02*
X472047D01*
X457087Y329528D02*
Y343701D01*
X472047D01*
Y329528D02*
Y343701D01*
X457087Y329528D02*
X472047D01*
X338583Y195276D02*
Y199213D01*
X336614Y197244D02*
X340551D01*
X334646Y190354D02*
X342520D01*
X334646D02*
Y204134D01*
X342520D01*
Y190354D02*
Y204134D01*
X320484Y320568D02*
Y339072D01*
Y320568D02*
X333083D01*
Y339072D01*
X320484D02*
X333083D01*
X324815Y329820D02*
X328752D01*
X326783Y327852D02*
Y331789D01*
X394321Y280491D02*
X404065Y290234D01*
X409633Y284667D01*
X399889Y274923D02*
X409633Y284667D01*
X394321Y280491D02*
X399889Y274923D01*
X401270Y283286D02*
X402684Y281872D01*
X401270D02*
X402684Y283286D01*
X399311Y194291D02*
Y205709D01*
X393406Y194291D02*
X399311D01*
X393406D02*
Y205709D01*
X399311D01*
X395358Y200000D02*
X397358D01*
X396358Y199000D02*
Y201000D01*
X376083Y187697D02*
Y199114D01*
X370177Y187697D02*
X376083D01*
X370177D02*
Y199114D01*
X376083D01*
X372130Y193405D02*
X374130D01*
X373130Y192405D02*
Y194405D01*
X382283Y193701D02*
Y205118D01*
X376378Y193701D02*
X382283D01*
X376378D02*
Y205118D01*
X382283D01*
X378331Y199409D02*
X380331D01*
X379331Y198409D02*
Y200409D01*
X409526Y284068D02*
X419270Y293811D01*
X403959Y289636D02*
X409526Y284068D01*
X403959Y289636D02*
X413702Y299379D01*
X419270Y293811D01*
X410907Y292431D02*
X412321Y291017D01*
X410907D02*
X412321Y292431D01*
X401107Y242291D02*
X410850Y252034D01*
X395539Y247859D02*
X401107Y242291D01*
X395539Y247859D02*
X405282Y257602D01*
X410850Y252034D01*
X402487Y250654D02*
X403902Y249239D01*
X402487D02*
X403902Y250654D01*
X421380Y278129D02*
X431123Y287872D01*
X436691Y282304D01*
X426947Y272561D02*
X436691Y282304D01*
X421380Y278129D02*
X426947Y272561D01*
X428328Y280924D02*
X429742Y279509D01*
X428328D02*
X429742Y280924D01*
X432699Y267991D02*
X442442Y277734D01*
X448010Y272167D01*
X438266Y262423D02*
X448010Y272167D01*
X432699Y267991D02*
X438266Y262423D01*
X439647Y270786D02*
X441061Y269372D01*
X439647D02*
X441061Y270786D01*
X430589Y259034D02*
X440333Y249290D01*
X434765Y243722D02*
X440333Y249290D01*
X425022Y253466D02*
X434765Y243722D01*
X425022Y253466D02*
X430589Y259034D01*
X431970Y250671D02*
X433384Y252085D01*
X431970D02*
X433384Y250671D01*
X450295Y282776D02*
Y286713D01*
X448327Y284744D02*
X452264D01*
X446358Y291634D02*
X454232D01*
X446358Y277854D02*
Y291634D01*
Y277854D02*
X454232D01*
Y291634D01*
X444291Y304035D02*
X448228D01*
X446260Y302067D02*
Y306004D01*
X453150Y300098D02*
Y307972D01*
X439370D02*
X453150D01*
X439370Y300098D02*
Y307972D01*
Y300098D02*
X453150D01*
X441535Y300886D02*
X452953D01*
Y294980D02*
Y300886D01*
X441535Y294980D02*
X452953D01*
X441535D02*
Y300886D01*
X447244Y296933D02*
Y298933D01*
X446244Y297933D02*
X448244D01*
X248819Y303346D02*
X275590D01*
Y290354D02*
Y303346D01*
X248819Y290354D02*
X275590D01*
X248819D02*
Y303346D01*
X262205Y294882D02*
Y298819D01*
X260236Y296850D02*
X264173D01*
X297638Y325394D02*
Y339173D01*
Y325394D02*
X305512D01*
Y339173D01*
X297638D02*
X305512D01*
X299606Y332283D02*
X303543D01*
X301575Y330315D02*
Y334252D01*
X297638Y312795D02*
Y326575D01*
Y312795D02*
X305512D01*
Y326575D01*
X297638D02*
X305512D01*
X299606Y319685D02*
X303543D01*
X301575Y317717D02*
Y321654D01*
X297441Y300197D02*
Y313976D01*
Y300197D02*
X305315D01*
Y313976D01*
X297441D02*
X305315D01*
X299410Y307087D02*
X303346D01*
X301378Y305118D02*
Y309055D01*
X296555Y273602D02*
Y295256D01*
X267421Y273602D02*
Y295256D01*
Y273602D02*
X296555D01*
X267421Y295256D02*
X296555D01*
X276772Y268898D02*
X280709D01*
X278740Y266929D02*
Y270866D01*
X265354Y262402D02*
Y275394D01*
X292126D01*
Y262402D02*
Y275394D01*
X265354Y262402D02*
X292126D01*
X337894Y331398D02*
Y344390D01*
Y331398D02*
X345374D01*
Y344390D01*
X337894D02*
X345374D01*
X339665Y337894D02*
X343602D01*
X341634Y335925D02*
Y339862D01*
X352756Y330906D02*
Y344685D01*
X344882D02*
X352756D01*
X344882Y330906D02*
Y344685D01*
Y330906D02*
X352756D01*
X346850Y337795D02*
X350787D01*
X348819Y335827D02*
Y339764D01*
X509842Y128937D02*
X513779D01*
X511811Y126969D02*
Y130905D01*
X518701Y125000D02*
Y132874D01*
X504921D02*
X518701D01*
X504921Y125000D02*
Y132874D01*
Y125000D02*
X518701D01*
X509842Y319882D02*
X513779D01*
X511811Y317913D02*
Y321850D01*
X518701Y315945D02*
Y323819D01*
X504921D02*
X518701D01*
X504921Y315945D02*
Y323819D01*
Y315945D02*
X518701D01*
X509842Y341535D02*
X513779D01*
X511811Y339567D02*
Y343504D01*
X518701Y337598D02*
Y345472D01*
X504921D02*
X518701D01*
X504921Y337598D02*
Y345472D01*
Y337598D02*
X518701D01*
X509842Y294291D02*
X513779D01*
X511811Y292323D02*
Y296260D01*
X518701Y290354D02*
Y298228D01*
X504921D02*
X518701D01*
X504921Y290354D02*
Y298228D01*
Y290354D02*
X518701D01*
X509842Y270669D02*
X513779D01*
X511811Y268701D02*
Y272638D01*
X518701Y266732D02*
Y274606D01*
X504921D02*
X518701D01*
X504921Y266732D02*
Y274606D01*
Y266732D02*
X518701D01*
X509842Y247047D02*
X513779D01*
X511811Y245079D02*
Y249016D01*
X518701Y243110D02*
Y250984D01*
X504921D02*
X518701D01*
X504921Y243110D02*
Y250984D01*
Y243110D02*
X518701D01*
X509842Y223425D02*
X513779D01*
X511811Y221457D02*
Y225394D01*
X518701Y219488D02*
Y227362D01*
X504921D02*
X518701D01*
X504921Y219488D02*
Y227362D01*
Y219488D02*
X518701D01*
X509842Y199803D02*
X513779D01*
X511811Y197835D02*
Y201772D01*
X518701Y195866D02*
Y203740D01*
X504921D02*
X518701D01*
X504921Y195866D02*
Y203740D01*
Y195866D02*
X518701D01*
X509842Y176181D02*
X513779D01*
X511811Y174213D02*
Y178150D01*
X518701Y172244D02*
Y180118D01*
X504921D02*
X518701D01*
X504921Y172244D02*
Y180118D01*
Y172244D02*
X518701D01*
X509842Y152559D02*
X513779D01*
X511811Y150591D02*
Y154528D01*
X518701Y148622D02*
Y156496D01*
X504921D02*
X518701D01*
X504921Y148622D02*
Y156496D01*
Y148622D02*
X518701D01*
X466535Y108268D02*
Y122047D01*
X458661D02*
X466535D01*
X458661Y108268D02*
Y122047D01*
Y108268D02*
X466535D01*
X460630Y115157D02*
X464567D01*
X462598Y113189D02*
Y117126D01*
X466535Y131890D02*
Y145669D01*
X458661D02*
X466535D01*
X458661Y131890D02*
Y145669D01*
Y131890D02*
X466535D01*
X460630Y138779D02*
X464567D01*
X462598Y136811D02*
Y140748D01*
X466535Y155512D02*
Y169291D01*
X458661D02*
X466535D01*
X458661Y155512D02*
Y169291D01*
Y155512D02*
X466535D01*
X460630Y162402D02*
X464567D01*
X462598Y160433D02*
Y164370D01*
X455315Y202362D02*
X469095D01*
X455315Y194488D02*
Y202362D01*
Y194488D02*
X469095D01*
Y202362D01*
X462205Y196457D02*
Y200394D01*
X460236Y198425D02*
X464173D01*
X466535Y202756D02*
Y216535D01*
X458661D02*
X466535D01*
X458661Y202756D02*
Y216535D01*
Y202756D02*
X466535D01*
X460630Y209646D02*
X464567D01*
X462598Y207677D02*
Y211614D01*
X466535Y226378D02*
Y240158D01*
X458661D02*
X466535D01*
X458661Y226378D02*
Y240158D01*
Y226378D02*
X466535D01*
X460630Y233268D02*
X464567D01*
X462598Y231299D02*
Y235236D01*
X466535Y250000D02*
Y263779D01*
X458661D02*
X466535D01*
X458661Y250000D02*
Y263779D01*
Y250000D02*
X466535D01*
X460630Y256890D02*
X464567D01*
X462598Y254921D02*
Y258858D01*
X466535Y273622D02*
Y287402D01*
X458661D02*
X466535D01*
X458661Y273622D02*
Y287402D01*
Y273622D02*
X466535D01*
X460630Y280512D02*
X464567D01*
X462598Y278543D02*
Y282480D01*
X466535Y297244D02*
Y311024D01*
X458661D02*
X466535D01*
X458661Y297244D02*
Y311024D01*
Y297244D02*
X466535D01*
X460630Y304134D02*
X464567D01*
X462598Y302165D02*
Y306102D01*
X466535Y320866D02*
Y334646D01*
X458661D02*
X466535D01*
X458661Y320866D02*
Y334646D01*
Y320866D02*
X466535D01*
X460630Y327756D02*
X464567D01*
X462598Y325787D02*
Y329724D01*
X299213Y272228D02*
Y274228D01*
X298213Y273228D02*
X300213D01*
X295276Y280118D02*
X303150D01*
Y266339D02*
Y280118D01*
X295276Y266339D02*
X303150D01*
X295276D02*
Y280118D01*
X264862Y283842D02*
Y285842D01*
X263862Y284842D02*
X265862D01*
X260925Y291732D02*
X268799D01*
Y277953D02*
Y291732D01*
X260925Y277953D02*
X268799D01*
X260925D02*
Y291732D01*
X314185Y327852D02*
Y331789D01*
X312216Y329820D02*
X316153D01*
X307886Y339072D02*
X320484D01*
Y320568D02*
Y339072D01*
X307886Y320568D02*
X320484D01*
X307886D02*
Y339072D01*
X405512Y225984D02*
X409449D01*
X407480Y224016D02*
Y227953D01*
X400591Y222047D02*
Y229921D01*
X414370D01*
Y222047D02*
Y229921D01*
X400591Y222047D02*
X414370D01*
X395669Y220472D02*
Y224409D01*
X393701Y222441D02*
X397638D01*
X391929Y215945D02*
X399410D01*
X391929D02*
Y228937D01*
X399410D01*
Y215945D02*
Y228937D01*
X372047Y225984D02*
X375984D01*
X374016Y224016D02*
Y227953D01*
X380906Y222047D02*
Y229921D01*
X367126Y222047D02*
X380906D01*
X367126D02*
Y229921D01*
X380906D01*
X385827Y220472D02*
Y224409D01*
X383858Y222441D02*
X387795D01*
X382087Y215945D02*
X389567D01*
X382087D02*
Y228937D01*
X389567D01*
Y215945D02*
Y228937D01*
X334449Y185433D02*
X338386D01*
X336417Y183465D02*
Y187402D01*
X329528Y181496D02*
Y189370D01*
X343307D01*
Y181496D02*
Y189370D01*
X329528Y181496D02*
X343307D01*
X401458Y305235D02*
X402873Y303820D01*
X401458D02*
X402873Y305235D01*
X404114Y298403D02*
X408290Y302579D01*
X396041Y306476D02*
X404114Y298403D01*
X396041Y306476D02*
X400217Y310652D01*
X408290Y302579D01*
X374387Y284823D02*
X382460Y276749D01*
X386636Y280925D01*
X378563Y288999D02*
X386636Y280925D01*
X374387Y284823D02*
X378563Y288999D01*
X379805Y282167D02*
X381219Y283581D01*
X379805D02*
X381219Y282167D01*
X296457Y296850D02*
X300394D01*
X298425Y294882D02*
Y298819D01*
X291535Y292913D02*
Y300787D01*
X305315D01*
Y292913D02*
Y300787D01*
X291535Y292913D02*
X305315D01*
X362104Y317728D02*
X366041D01*
X364072Y315760D02*
Y319697D01*
X373324Y311429D02*
Y324027D01*
X354820D02*
X373324D01*
X354820Y311429D02*
Y324027D01*
Y311429D02*
X373324D01*
X344685Y311221D02*
X356102D01*
X344685D02*
Y317126D01*
X356102D01*
Y311221D02*
Y317126D01*
X350394Y313173D02*
Y315173D01*
X349394Y314173D02*
X351394D01*
D113*
X280020Y284429D02*
X283957D01*
X281988Y282461D02*
Y286398D01*
X388913Y202128D02*
Y206065D01*
X386944Y204097D02*
X390881D01*
X374149Y214924D02*
X403676D01*
X374149Y193270D02*
X403676D01*
X374149D02*
Y214924D01*
X403676Y193270D02*
Y214924D01*
X358302Y190908D02*
Y194845D01*
X356334Y192876D02*
X360271D01*
X343539Y203703D02*
X373066D01*
X343539Y182050D02*
X373066D01*
X343539D02*
Y203703D01*
X373066Y182050D02*
Y203703D01*
M02*
