G04*
G04 #@! TF.GenerationSoftware,Altium Limited,Altium Designer,21.8.1 (53)*
G04*
G04 Layer_Physical_Order=3*
G04 Layer_Color=128*
%FSLAX25Y25*%
%MOIN*%
G70*
G04*
G04 #@! TF.SameCoordinates,15BDF6F2-E804-41EB-80EB-1D885EA959A2*
G04*
G04*
G04 #@! TF.FilePolarity,Negative*
G04*
G01*
G75*
%ADD82C,0.04000*%
%ADD83C,0.04331*%
%ADD84C,0.04787*%
%ADD85C,0.13386*%
%ADD86C,0.03780*%
%ADD87C,0.07087*%
%ADD88C,0.13583*%
%ADD89C,0.01968*%
%ADD90C,0.03937*%
%ADD91C,0.03787*%
D82*
X246063Y348425D02*
X246063Y104331D01*
X246063Y348425D02*
X541339D01*
X541339Y104331D01*
X246063D02*
X541339D01*
D83*
X431732Y186024D02*
D03*
X421732D02*
D03*
X411732D02*
D03*
X401732D02*
D03*
X391732D02*
D03*
X441732D02*
D03*
Y114173D02*
D03*
Y150591D02*
D03*
Y132874D02*
D03*
Y168307D02*
D03*
X391732D02*
D03*
X401732D02*
D03*
X411732D02*
D03*
X421732D02*
D03*
X431732D02*
D03*
X391732Y150591D02*
D03*
X401732D02*
D03*
X411732D02*
D03*
X421732D02*
D03*
X431732D02*
D03*
X391732Y114173D02*
D03*
X401732D02*
D03*
X411732D02*
D03*
X421732D02*
D03*
X431732D02*
D03*
X391732Y132874D02*
D03*
X401732D02*
D03*
X411732D02*
D03*
X421732D02*
D03*
X431732D02*
D03*
D84*
X262441Y222323D02*
D03*
X272441D02*
D03*
X262441Y212323D02*
D03*
X272441D02*
D03*
X262441Y202323D02*
D03*
X272441D02*
D03*
X262441Y232323D02*
D03*
Y242323D02*
D03*
X525748Y331693D02*
D03*
Y308071D02*
D03*
Y260827D02*
D03*
X525591Y284449D02*
D03*
X334528Y252953D02*
D03*
X525748Y189961D02*
D03*
Y166339D02*
D03*
Y213583D02*
D03*
Y237205D02*
D03*
Y119095D02*
D03*
Y142717D02*
D03*
X424803Y318248D02*
D03*
X384606Y332087D02*
D03*
X378346Y130709D02*
D03*
X304724Y242756D02*
D03*
Y232756D02*
D03*
X394606Y332087D02*
D03*
X482283Y113189D02*
D03*
X482441Y136811D02*
D03*
X374606Y332087D02*
D03*
X404606D02*
D03*
X364606D02*
D03*
X314724Y202756D02*
D03*
X304724D02*
D03*
X314724Y212756D02*
D03*
X304724D02*
D03*
X314724Y222756D02*
D03*
X304724D02*
D03*
X344528Y252953D02*
D03*
X354528D02*
D03*
X378346Y140709D02*
D03*
X378346Y160709D02*
D03*
Y170709D02*
D03*
Y150709D02*
D03*
X505748Y142717D02*
D03*
X515748D02*
D03*
X505748Y166339D02*
D03*
X515748D02*
D03*
X505748Y189961D02*
D03*
X515748D02*
D03*
X505748Y213583D02*
D03*
X515748D02*
D03*
X505748Y237205D02*
D03*
X515748D02*
D03*
X505748Y260827D02*
D03*
X515748D02*
D03*
X505590Y284449D02*
D03*
X515590D02*
D03*
X505748Y308071D02*
D03*
X515748D02*
D03*
X505748Y331693D02*
D03*
X515748D02*
D03*
X505748Y119095D02*
D03*
X515748D02*
D03*
X482441Y160433D02*
D03*
X482283Y184055D02*
D03*
X482441Y207677D02*
D03*
X482283Y231299D02*
D03*
X482441Y254921D02*
D03*
X482283Y278543D02*
D03*
X482283Y302165D02*
D03*
X482441Y325787D02*
D03*
X348583Y210630D02*
D03*
X338583D02*
D03*
X424803Y338248D02*
D03*
Y328248D02*
D03*
D85*
X256299Y270472D02*
D03*
X443701Y335728D02*
D03*
X375197Y116535D02*
D03*
D86*
X343779Y173976D02*
D03*
X284724D02*
D03*
X348780Y163976D02*
D03*
X338779D02*
D03*
X333780Y173976D02*
D03*
X323780D02*
D03*
X289724Y163976D02*
D03*
X279724D02*
D03*
X274724Y173976D02*
D03*
X264724D02*
D03*
D87*
X283579Y308661D02*
D03*
X263779D02*
D03*
D88*
X356299Y138976D02*
D03*
X316299D02*
D03*
X297244D02*
D03*
X257244D02*
D03*
D89*
X368898Y292913D02*
D03*
X365354D02*
D03*
X396063Y309449D02*
D03*
X398425Y311811D02*
D03*
X407087Y298425D02*
D03*
Y303150D02*
D03*
X409449Y300787D02*
D03*
X383465Y275984D02*
D03*
X375590Y288976D02*
D03*
X373228Y286614D02*
D03*
X424606Y216240D02*
D03*
X429528Y216043D02*
D03*
X470472Y317913D02*
D03*
X467520Y319882D02*
D03*
X457677Y321850D02*
D03*
X444882Y293307D02*
D03*
X280512Y266732D02*
D03*
Y269685D02*
D03*
Y272638D02*
D03*
X277559D02*
D03*
X286417Y275590D02*
D03*
X283465D02*
D03*
X280512D02*
D03*
X277559D02*
D03*
Y297244D02*
D03*
X280512D02*
D03*
X283465D02*
D03*
X286417D02*
D03*
Y294291D02*
D03*
X283465D02*
D03*
X280512D02*
D03*
X277559D02*
D03*
X436024Y313189D02*
D03*
Y309252D02*
D03*
Y305315D02*
D03*
X401870Y273031D02*
D03*
X385827Y235827D02*
D03*
X383563Y233661D02*
D03*
X443898Y264961D02*
D03*
X451772Y255906D02*
D03*
X449803Y257874D02*
D03*
X447835Y259842D02*
D03*
X445866Y261811D02*
D03*
X418307Y269685D02*
D03*
X403543Y213583D02*
D03*
X359252Y223425D02*
D03*
Y219488D02*
D03*
Y215551D02*
D03*
Y211614D02*
D03*
X363189D02*
D03*
Y215551D02*
D03*
Y219488D02*
D03*
Y223425D02*
D03*
X330709Y124016D02*
D03*
Y120079D02*
D03*
Y116142D02*
D03*
X334646D02*
D03*
Y120079D02*
D03*
Y124016D02*
D03*
X338583D02*
D03*
Y120079D02*
D03*
Y116142D02*
D03*
X342520D02*
D03*
Y120079D02*
D03*
Y124016D02*
D03*
X271654D02*
D03*
Y120079D02*
D03*
Y116142D02*
D03*
X275590D02*
D03*
Y120079D02*
D03*
Y124016D02*
D03*
X279528D02*
D03*
Y120079D02*
D03*
Y116142D02*
D03*
X283465D02*
D03*
Y120079D02*
D03*
Y124016D02*
D03*
X267717Y190945D02*
D03*
Y187008D02*
D03*
Y183071D02*
D03*
X263779D02*
D03*
Y187008D02*
D03*
Y190945D02*
D03*
X259842D02*
D03*
Y187008D02*
D03*
Y183071D02*
D03*
X255906D02*
D03*
Y187008D02*
D03*
Y190945D02*
D03*
X325787Y189961D02*
D03*
X321850D02*
D03*
X317913D02*
D03*
X313976D02*
D03*
X310039D02*
D03*
X306102D02*
D03*
X302165D02*
D03*
X298228D02*
D03*
X294291D02*
D03*
Y186024D02*
D03*
X298228D02*
D03*
X302165D02*
D03*
X306102D02*
D03*
X310039D02*
D03*
X313976D02*
D03*
X317913D02*
D03*
X321850D02*
D03*
X325787D02*
D03*
X405512Y312992D02*
D03*
X259842Y335630D02*
D03*
Y339567D02*
D03*
X405512Y316929D02*
D03*
Y320866D02*
D03*
Y324803D02*
D03*
X409449Y312992D02*
D03*
Y316929D02*
D03*
Y320866D02*
D03*
Y324803D02*
D03*
X410433Y275590D02*
D03*
Y280512D02*
D03*
X431102Y270669D02*
D03*
X408465Y259842D02*
D03*
X411417Y256890D02*
D03*
X414370Y253937D02*
D03*
X417323Y250984D02*
D03*
X420276Y253937D02*
D03*
X423228Y256890D02*
D03*
X426181Y259842D02*
D03*
X255906Y327756D02*
D03*
Y331693D02*
D03*
Y335630D02*
D03*
Y339567D02*
D03*
X251969Y327756D02*
D03*
Y331693D02*
D03*
Y335630D02*
D03*
Y339567D02*
D03*
X468898Y143701D02*
D03*
X468785Y167111D02*
D03*
X468898Y190650D02*
D03*
Y214272D02*
D03*
Y237795D02*
D03*
Y261516D02*
D03*
Y332579D02*
D03*
X468701Y309154D02*
D03*
X468672Y284813D02*
D03*
X418701Y283169D02*
D03*
X414272Y286024D02*
D03*
X423524Y247146D02*
D03*
X355217Y227559D02*
D03*
X380610Y249114D02*
D03*
X383465Y252264D02*
D03*
X386122Y255512D02*
D03*
X361516Y238976D02*
D03*
X404722Y201597D02*
D03*
Y206597D02*
D03*
X419685Y202658D02*
D03*
X422146Y206299D02*
D03*
X406102Y265158D02*
D03*
X403051Y267913D02*
D03*
X395472Y261910D02*
D03*
X406201Y270571D02*
D03*
X440748Y234941D02*
D03*
X361713Y246161D02*
D03*
X399114Y260433D02*
D03*
X397835Y236024D02*
D03*
X394488Y232185D02*
D03*
X433661Y238484D02*
D03*
X450295Y292815D02*
D03*
X423622Y198819D02*
D03*
Y193701D02*
D03*
X468898Y120177D02*
D03*
D90*
X449508Y197244D02*
X456595Y190157D01*
Y131201D02*
Y190157D01*
Y131201D02*
X461319Y126476D01*
X461811D01*
X465748Y130413D01*
Y133071D01*
X482480Y104429D02*
X485728Y107677D01*
X246260Y237598D02*
X320571D01*
X324016Y241043D01*
Y276870D01*
X333957Y286811D01*
X350295D01*
X355709Y292224D01*
Y310925D01*
X362303Y317520D01*
X381299D01*
X397736Y301083D01*
X459547D01*
X465748Y294882D01*
X465748Y133071D02*
X465748Y294882D01*
X389567Y197343D02*
X449508D01*
X366339Y174114D02*
X389567Y197343D01*
X366339Y103937D02*
Y174114D01*
X246063Y275197D02*
X258760D01*
X264296Y280732D01*
Y327288D01*
X272539Y335531D01*
X411713D01*
X428248Y318996D01*
X455020D01*
X468209Y332185D01*
X478051D01*
X485728Y324508D01*
X485728Y107677D01*
D91*
X281988Y286929D02*
D03*
Y281929D02*
D03*
M02*
