G04*
G04 #@! TF.GenerationSoftware,Altium Limited,Altium Designer,21.8.1 (53)*
G04*
G04 Layer_Color=8388736*
%FSLAX25Y25*%
%MOIN*%
G70*
G04*
G04 #@! TF.SameCoordinates,15BDF6F2-E804-41EB-80EB-1D885EA959A2*
G04*
G04*
G04 #@! TF.FilePolarity,Negative*
G04*
G01*
G75*
G04:AMPARAMS|DCode=25|XSize=59.06mil|YSize=11.81mil|CornerRadius=0mil|HoleSize=0mil|Usage=FLASHONLY|Rotation=225.000|XOffset=0mil|YOffset=0mil|HoleType=Round|Shape=Rectangle|*
%AMROTATEDRECTD25*
4,1,4,0.01670,0.02506,0.02506,0.01670,-0.01670,-0.02506,-0.02506,-0.01670,0.01670,0.02506,0.0*
%
%ADD25ROTATEDRECTD25*%

G04:AMPARAMS|DCode=28|XSize=59.06mil|YSize=11.81mil|CornerRadius=0mil|HoleSize=0mil|Usage=FLASHONLY|Rotation=135.000|XOffset=0mil|YOffset=0mil|HoleType=Round|Shape=Rectangle|*
%AMROTATEDRECTD28*
4,1,4,0.02506,-0.01670,0.01670,-0.02506,-0.02506,0.01670,-0.01670,0.02506,0.02506,-0.01670,0.0*
%
%ADD28ROTATEDRECTD28*%

%ADD34R,0.05800X0.05800*%
G04:AMPARAMS|DCode=35|XSize=58mil|YSize=45.4mil|CornerRadius=9.61mil|HoleSize=0mil|Usage=FLASHONLY|Rotation=180.000|XOffset=0mil|YOffset=0mil|HoleType=Round|Shape=RoundedRectangle|*
%AMROUNDEDRECTD35*
21,1,0.05800,0.02618,0,0,180.0*
21,1,0.03878,0.04540,0,0,180.0*
1,1,0.01922,-0.01939,0.01309*
1,1,0.01922,0.01939,0.01309*
1,1,0.01922,0.01939,-0.01309*
1,1,0.01922,-0.01939,-0.01309*
%
%ADD35ROUNDEDRECTD35*%
G04:AMPARAMS|DCode=36|XSize=114.3mil|YSize=53.28mil|CornerRadius=15.32mil|HoleSize=0mil|Usage=FLASHONLY|Rotation=0.000|XOffset=0mil|YOffset=0mil|HoleType=Round|Shape=RoundedRectangle|*
%AMROUNDEDRECTD36*
21,1,0.11430,0.02264,0,0,0.0*
21,1,0.08366,0.05328,0,0,0.0*
1,1,0.03064,0.04183,-0.01132*
1,1,0.03064,-0.04183,-0.01132*
1,1,0.03064,-0.04183,0.01132*
1,1,0.03064,0.04183,0.01132*
%
%ADD36ROUNDEDRECTD36*%
G04:AMPARAMS|DCode=37|XSize=58mil|YSize=45.4mil|CornerRadius=9.61mil|HoleSize=0mil|Usage=FLASHONLY|Rotation=270.000|XOffset=0mil|YOffset=0mil|HoleType=Round|Shape=RoundedRectangle|*
%AMROUNDEDRECTD37*
21,1,0.05800,0.02618,0,0,270.0*
21,1,0.03878,0.04540,0,0,270.0*
1,1,0.01922,-0.01309,-0.01939*
1,1,0.01922,-0.01309,0.01939*
1,1,0.01922,0.01309,0.01939*
1,1,0.01922,0.01309,-0.01939*
%
%ADD37ROUNDEDRECTD37*%
G04:AMPARAMS|DCode=38|XSize=43.43mil|YSize=43.43mil|CornerRadius=9.32mil|HoleSize=0mil|Usage=FLASHONLY|Rotation=225.000|XOffset=0mil|YOffset=0mil|HoleType=Round|Shape=RoundedRectangle|*
%AMROUNDEDRECTD38*
21,1,0.04343,0.02480,0,0,225.0*
21,1,0.02480,0.04343,0,0,225.0*
1,1,0.01863,-0.01754,0.00000*
1,1,0.01863,0.00000,0.01754*
1,1,0.01863,0.01754,0.00000*
1,1,0.01863,0.00000,-0.01754*
%
%ADD38ROUNDEDRECTD38*%
G04:AMPARAMS|DCode=39|XSize=78.87mil|YSize=63.12mil|CornerRadius=0mil|HoleSize=0mil|Usage=FLASHONLY|Rotation=225.000|XOffset=0mil|YOffset=0mil|HoleType=Round|Shape=Rectangle|*
%AMROTATEDRECTD39*
4,1,4,0.00557,0.05020,0.05020,0.00557,-0.00557,-0.05020,-0.05020,-0.00557,0.00557,0.05020,0.0*
%
%ADD39ROTATEDRECTD39*%

G04:AMPARAMS|DCode=40|XSize=63.12mil|YSize=47.37mil|CornerRadius=13.84mil|HoleSize=0mil|Usage=FLASHONLY|Rotation=0.000|XOffset=0mil|YOffset=0mil|HoleType=Round|Shape=RoundedRectangle|*
%AMROUNDEDRECTD40*
21,1,0.06312,0.01968,0,0,0.0*
21,1,0.03543,0.04737,0,0,0.0*
1,1,0.02769,0.01772,-0.00984*
1,1,0.02769,-0.01772,-0.00984*
1,1,0.02769,-0.01772,0.00984*
1,1,0.02769,0.01772,0.00984*
%
%ADD40ROUNDEDRECTD40*%
G04:AMPARAMS|DCode=41|XSize=58mil|YSize=53.28mil|CornerRadius=10.79mil|HoleSize=0mil|Usage=FLASHONLY|Rotation=0.000|XOffset=0mil|YOffset=0mil|HoleType=Round|Shape=RoundedRectangle|*
%AMROUNDEDRECTD41*
21,1,0.05800,0.03169,0,0,0.0*
21,1,0.03642,0.05328,0,0,0.0*
1,1,0.02158,0.01821,-0.01585*
1,1,0.02158,-0.01821,-0.01585*
1,1,0.02158,-0.01821,0.01585*
1,1,0.02158,0.01821,0.01585*
%
%ADD41ROUNDEDRECTD41*%
%ADD42O,0.06509X0.03162*%
%ADD43O,0.09461X0.03162*%
G04:AMPARAMS|DCode=44|XSize=94.61mil|YSize=69.02mil|CornerRadius=19.26mil|HoleSize=0mil|Usage=FLASHONLY|Rotation=0.000|XOffset=0mil|YOffset=0mil|HoleType=Round|Shape=RoundedRectangle|*
%AMROUNDEDRECTD44*
21,1,0.09461,0.03051,0,0,0.0*
21,1,0.05610,0.06902,0,0,0.0*
1,1,0.03851,0.02805,-0.01526*
1,1,0.03851,-0.02805,-0.01526*
1,1,0.03851,-0.02805,0.01526*
1,1,0.03851,0.02805,0.01526*
%
%ADD44ROUNDEDRECTD44*%
%ADD45R,0.48044X0.08300*%
G04:AMPARAMS|DCode=46|XSize=480.44mil|YSize=165.48mil|CornerRadius=43.37mil|HoleSize=0mil|Usage=FLASHONLY|Rotation=180.000|XOffset=0mil|YOffset=0mil|HoleType=Round|Shape=RoundedRectangle|*
%AMROUNDEDRECTD46*
21,1,0.48044,0.07874,0,0,180.0*
21,1,0.39370,0.16548,0,0,180.0*
1,1,0.08674,-0.19685,0.03937*
1,1,0.08674,0.19685,0.03937*
1,1,0.08674,0.19685,-0.03937*
1,1,0.08674,-0.19685,-0.03937*
%
%ADD46ROUNDEDRECTD46*%
G04:AMPARAMS|DCode=47|XSize=78.87mil|YSize=63.12mil|CornerRadius=17.78mil|HoleSize=0mil|Usage=FLASHONLY|Rotation=225.000|XOffset=0mil|YOffset=0mil|HoleType=Round|Shape=RoundedRectangle|*
%AMROUNDEDRECTD47*
21,1,0.07887,0.02756,0,0,225.0*
21,1,0.04331,0.06312,0,0,225.0*
1,1,0.03556,-0.02506,-0.00557*
1,1,0.03556,0.00557,0.02506*
1,1,0.03556,0.02506,0.00557*
1,1,0.03556,-0.00557,-0.02506*
%
%ADD47ROUNDEDRECTD47*%
%ADD48C,0.06706*%
%ADD49R,0.06706X0.06706*%
%ADD50C,0.07800*%
%ADD51R,0.07800X0.07800*%
%ADD52C,0.13398*%
%ADD53R,0.06706X0.07887*%
%ADD54C,0.07300*%
%ADD55R,0.07887X0.06706*%
%ADD56R,0.10800X0.10800*%
%ADD57R,0.10249X0.13005*%
%ADD58C,0.06800*%
%ADD59R,0.07300X0.07300*%
%ADD60C,0.16548*%
%ADD61R,0.07300X0.07300*%
%ADD62C,0.00800*%
%ADD63C,0.03162*%
%ADD64C,0.05800*%
D25*
X432101Y280737D02*
D03*
X439061Y273778D02*
D03*
X400365Y249001D02*
D03*
X430709Y282130D02*
D03*
X440453Y272386D02*
D03*
X401757Y247609D02*
D03*
X411501Y237865D02*
D03*
X410108Y239258D02*
D03*
X408717Y240649D02*
D03*
X407325Y242041D02*
D03*
X405933Y243433D02*
D03*
X404541Y244825D02*
D03*
X403149Y246217D02*
D03*
X398973Y250393D02*
D03*
X397581Y251785D02*
D03*
X396189Y253177D02*
D03*
X394797Y254569D02*
D03*
X393405Y255961D02*
D03*
X392014Y257352D02*
D03*
X390621Y258745D02*
D03*
X422358Y290481D02*
D03*
X423750Y289089D02*
D03*
X425141Y287697D02*
D03*
X426534Y286305D02*
D03*
X427925Y284913D02*
D03*
X429318Y283521D02*
D03*
X433493Y279346D02*
D03*
X434885Y277953D02*
D03*
X436277Y276562D02*
D03*
X437669Y275169D02*
D03*
X441845Y270994D02*
D03*
X443237Y269602D02*
D03*
D28*
X433493Y249001D02*
D03*
X400365Y279346D02*
D03*
X408717Y287697D02*
D03*
X404541Y283521D02*
D03*
X434885Y250393D02*
D03*
X422358Y237865D02*
D03*
X390621Y269602D02*
D03*
X392014Y270994D02*
D03*
X393405Y272386D02*
D03*
X394797Y273778D02*
D03*
X396189Y275169D02*
D03*
X397581Y276562D02*
D03*
X398973Y277953D02*
D03*
X401757Y280737D02*
D03*
X403149Y282130D02*
D03*
X405933Y284913D02*
D03*
X407325Y286305D02*
D03*
X410108Y289089D02*
D03*
X411501Y290481D02*
D03*
X443237Y258745D02*
D03*
X441845Y257352D02*
D03*
X440453Y255961D02*
D03*
X439061Y254569D02*
D03*
X437669Y253177D02*
D03*
X436277Y251785D02*
D03*
X432101Y247609D02*
D03*
X430709Y246217D02*
D03*
X429318Y244825D02*
D03*
X427925Y243433D02*
D03*
X426534Y242041D02*
D03*
X425141Y240649D02*
D03*
X423750Y239258D02*
D03*
D34*
X450295Y321047D02*
D03*
X438484D02*
D03*
X450295Y298047D02*
D03*
X438484D02*
D03*
D35*
X338583Y201181D02*
D03*
Y193307D02*
D03*
X462598Y300197D02*
D03*
Y323819D02*
D03*
Y252953D02*
D03*
Y276575D02*
D03*
Y111221D02*
D03*
Y158465D02*
D03*
Y134843D02*
D03*
Y205709D02*
D03*
Y229331D02*
D03*
X301575Y336221D02*
D03*
X348819Y341732D02*
D03*
X301575Y328346D02*
D03*
Y323622D02*
D03*
Y315748D02*
D03*
X301378Y311024D02*
D03*
Y303150D02*
D03*
X348819Y333858D02*
D03*
X462598Y119095D02*
D03*
Y142717D02*
D03*
Y166339D02*
D03*
Y213583D02*
D03*
Y237205D02*
D03*
Y260827D02*
D03*
Y284449D02*
D03*
Y308071D02*
D03*
Y331693D02*
D03*
D36*
X326783Y323915D02*
D03*
Y335726D02*
D03*
X314185D02*
D03*
Y323915D02*
D03*
D37*
X466142Y198425D02*
D03*
X332480Y185433D02*
D03*
X411417Y225984D02*
D03*
X370079D02*
D03*
X458268Y198425D02*
D03*
X403543Y225984D02*
D03*
X377953D02*
D03*
X340354Y185433D02*
D03*
X302362Y296850D02*
D03*
X294488D02*
D03*
D38*
X404253Y302440D02*
D03*
X378424Y284962D02*
D03*
X400077Y306615D02*
D03*
X382600Y280786D02*
D03*
D39*
X400410Y296091D02*
D03*
X381480Y290523D02*
D03*
X388161Y283842D02*
D03*
D40*
X341634Y341437D02*
D03*
Y334350D02*
D03*
X395669Y225984D02*
D03*
Y218898D02*
D03*
X385827Y225984D02*
D03*
Y218898D02*
D03*
D41*
X264862Y288386D02*
D03*
X299213Y269685D02*
D03*
Y276772D02*
D03*
X264862Y281299D02*
D03*
D42*
X271260Y286929D02*
D03*
X292717Y276929D02*
D03*
Y281929D02*
D03*
Y286929D02*
D03*
Y291929D02*
D03*
X271260Y276929D02*
D03*
Y281929D02*
D03*
Y291929D02*
D03*
D43*
X379464Y211597D02*
D03*
X398361D02*
D03*
X367751Y190376D02*
D03*
X379464Y196597D02*
D03*
X367751Y195376D02*
D03*
X379464Y206597D02*
D03*
Y201597D02*
D03*
X398361Y206597D02*
D03*
Y201597D02*
D03*
Y196597D02*
D03*
X348853Y200376D02*
D03*
Y195376D02*
D03*
Y190376D02*
D03*
Y185376D02*
D03*
X367751Y200376D02*
D03*
Y185376D02*
D03*
D44*
X286811Y268898D02*
D03*
X270669D02*
D03*
D45*
X329453Y277923D02*
D03*
Y306723D02*
D03*
D46*
Y312823D02*
D03*
Y272123D02*
D03*
D47*
X393729Y302772D02*
D03*
D48*
X431732Y186024D02*
D03*
X421732D02*
D03*
X411732D02*
D03*
X401732D02*
D03*
X391732D02*
D03*
X441732D02*
D03*
Y114173D02*
D03*
Y150591D02*
D03*
Y132874D02*
D03*
Y168307D02*
D03*
X391732D02*
D03*
X401732D02*
D03*
X411732D02*
D03*
X421732D02*
D03*
X431732D02*
D03*
X391732Y150591D02*
D03*
X401732D02*
D03*
X411732D02*
D03*
X421732D02*
D03*
X431732D02*
D03*
X391732Y114173D02*
D03*
X401732D02*
D03*
X411732D02*
D03*
X421732D02*
D03*
X431732D02*
D03*
X391732Y132874D02*
D03*
X401732D02*
D03*
X411732D02*
D03*
X421732D02*
D03*
X431732D02*
D03*
D49*
X451732Y186024D02*
D03*
Y168307D02*
D03*
Y150591D02*
D03*
Y114173D02*
D03*
Y132874D02*
D03*
D50*
X272441Y242323D02*
D03*
X262441Y222323D02*
D03*
X272441D02*
D03*
X262441Y212323D02*
D03*
X272441D02*
D03*
X262441Y202323D02*
D03*
X272441Y232323D02*
D03*
X262441D02*
D03*
Y242323D02*
D03*
X304724Y242756D02*
D03*
Y232756D02*
D03*
X314724D02*
D03*
X304724Y202756D02*
D03*
X314724Y212756D02*
D03*
X304724D02*
D03*
X314724Y222756D02*
D03*
X304724D02*
D03*
X314724Y242756D02*
D03*
D51*
X272441Y202323D02*
D03*
X314724Y202756D02*
D03*
D52*
X256299Y270472D02*
D03*
D53*
X525748Y331693D02*
D03*
Y308071D02*
D03*
Y260827D02*
D03*
X525591Y284449D02*
D03*
X525748Y189961D02*
D03*
Y166339D02*
D03*
Y213583D02*
D03*
Y237205D02*
D03*
Y119095D02*
D03*
Y142717D02*
D03*
X384606Y332087D02*
D03*
X394606D02*
D03*
X374606D02*
D03*
X404606D02*
D03*
X364606D02*
D03*
X505748Y142717D02*
D03*
X515748D02*
D03*
X505748Y166339D02*
D03*
X515748D02*
D03*
X505748Y189961D02*
D03*
X515748D02*
D03*
X505748Y213583D02*
D03*
X515748D02*
D03*
X505748Y237205D02*
D03*
X515748D02*
D03*
X505748Y260827D02*
D03*
X515748D02*
D03*
X505590Y284449D02*
D03*
X515590D02*
D03*
X505748Y308071D02*
D03*
X515748D02*
D03*
X505748Y331693D02*
D03*
X515748D02*
D03*
X505748Y119095D02*
D03*
X515748D02*
D03*
D54*
X334528Y252953D02*
D03*
X378346Y130709D02*
D03*
X482283Y113189D02*
D03*
X472283D02*
D03*
X472441Y136811D02*
D03*
X482441D02*
D03*
X344528Y252953D02*
D03*
X354528D02*
D03*
X378346Y140709D02*
D03*
X378346Y160709D02*
D03*
Y170709D02*
D03*
Y150709D02*
D03*
X482441Y160433D02*
D03*
X472441D02*
D03*
X482283Y184055D02*
D03*
X472284D02*
D03*
X482441Y207677D02*
D03*
X472441D02*
D03*
X482283Y231299D02*
D03*
X472283D02*
D03*
X482441Y254921D02*
D03*
X472441D02*
D03*
X482283Y278543D02*
D03*
X472284D02*
D03*
X482283Y302165D02*
D03*
X472283D02*
D03*
X482441Y325787D02*
D03*
X472441D02*
D03*
X338583Y210630D02*
D03*
D55*
X424803Y318248D02*
D03*
Y338248D02*
D03*
Y328248D02*
D03*
Y308248D02*
D03*
D56*
X283579Y308661D02*
D03*
X263779D02*
D03*
D57*
X281988Y284429D02*
D03*
D58*
X343779Y173976D02*
D03*
X284724D02*
D03*
X269724Y163976D02*
D03*
X328780D02*
D03*
X348780D02*
D03*
X338779D02*
D03*
X333780Y173976D02*
D03*
X323780D02*
D03*
X289724Y163976D02*
D03*
X279724D02*
D03*
X274724Y173976D02*
D03*
X264724D02*
D03*
D59*
X364528Y252953D02*
D03*
X492283Y113189D02*
D03*
X492441Y136811D02*
D03*
Y160433D02*
D03*
X492283Y184055D02*
D03*
X492441Y207677D02*
D03*
X492283Y231299D02*
D03*
X492441Y254921D02*
D03*
X492283Y278543D02*
D03*
X492283Y302165D02*
D03*
X492441Y325787D02*
D03*
X348583Y210630D02*
D03*
D60*
X443701Y335728D02*
D03*
X375197Y116535D02*
D03*
D61*
X378346Y180709D02*
D03*
D62*
X356299Y138976D02*
D03*
X316299D02*
D03*
X297244D02*
D03*
X257244D02*
D03*
D63*
X468898Y143701D02*
D03*
X468785Y167111D02*
D03*
X468898Y190650D02*
D03*
Y214272D02*
D03*
Y237795D02*
D03*
Y261516D02*
D03*
Y332579D02*
D03*
X468701Y309154D02*
D03*
X468672Y284813D02*
D03*
D64*
X281988Y286929D02*
D03*
Y281929D02*
D03*
M02*
