M48
;Layer_Color=9474304
;FILE_FORMAT=2:5
INCH,TZ
;TYPE=PLATED
T1F00S00C0.01181
T2F00S00C0.02992
T3F00S00C0.03000
T4F00S00C0.03543
T5F00S00C0.04000
T6F00S00C0.06299
T7F00S00C0.12598
T8F00S00C0.12795
%
T01
X271654Y116142
Y120079
Y124016
X275590
Y120079
Y116142
X279528
Y120079
Y124016
X283465
Y120079
Y116142
X330709
Y120079
Y124016
X334646
Y120079
Y116142
X338583
Y120079
Y124016
X342520
Y120079
Y116142
X460236Y130118
Y153740
X468898Y143701
Y120177
X468785Y167111
X468898Y190650
Y214272
Y237795
Y261516
X455217Y269488
X446063Y275984
X443898Y264961
X445866Y261811
X447835Y259842
X449803Y257874
X451772Y255906
X438189Y245866
X433661Y238484
X440748Y234941
X455118Y233465
X455315Y222342
X456299Y205315
X460236Y177362
X423622Y193701
Y198819
X419685Y202658
X422146Y206299
X412008Y204921
X404722Y206597
Y201597
X403543Y213583
X424606Y216240
X429528Y216043
X423524Y247146
X423228Y256890
X420276Y253937
X414370
X411417Y256890
X408465Y259842
X406102Y265158
X406201Y270571
X403051Y267913
X401870Y273031
X410433Y275590
Y280512
X414272Y286024
X418701Y283169
X418307Y269685
X431102Y270669
X426181Y259842
X417323Y250984
X399114Y260433
X395472Y261910
X386122Y255512
X383465Y252264
X380610Y249114
X383563Y233661
X385827Y235827
X397835Y236024
X394488Y232185
X395276Y242126
X361516Y238976
X361713Y246161
X363189Y223425
X359252
Y219488
X363189
Y215551
X359252
Y211614
X363189
X370079Y221358
X355217Y227559
X377067Y190847
X398361Y192259
X325787Y189961
X321850
X317913
X313976
Y186024
X317913
X321850
X325787
X326772Y295276
X322835
Y299213
X326772
X330709
X334646
X338583
X342520
X346457
X350394
Y295276
X346457
X342520
X338583
X334646
X330709
X318898
Y299213
X314961
Y295276
X365354Y292913
X368898
Y300394
X371654
X374410
Y303150
Y305906
Y308661
Y311417
X371654
Y308661
Y305906
Y303150
X366142Y300394
X377461Y308661
Y311417
X396063Y309449
X398425Y311811
X407087Y303150
Y298425
X409449Y300787
X405905Y292126
X401476Y288090
X375590Y288976
X373228Y286614
X383465Y275984
X434449Y285869
X439468Y292126
X444882Y293307
X450295Y292815
X468672Y284813
X468701Y309154
X436024Y309252
Y305315
X311024Y299213
X307087
Y295276
X311024
X286417Y294291
Y297244
X283465
Y294291
X280512
Y297244
X277559
Y294291
Y275590
Y272638
X280512
Y275590
X283465
X286417
X280512Y269685
Y266732
X256988Y281890
X253839
Y285039
X256988
Y288189
X253839
Y291339
X256988
X250689
Y288189
Y285039
Y281890
X255906Y190945
Y187008
X259842
Y190945
X263779
Y187008
X267717
Y190945
Y183071
X263779
X259842
X255906
X294291Y186024
Y189961
X298228
X302165
X306102
X310039
Y186024
X306102
X302165
X298228
X255906Y327756
Y331693
Y335630
X259842
Y339567
X255906
X251969
Y335630
Y331693
Y327756
X333661Y322047
X336614Y322047
X339567
X342520Y322047
Y325000
Y327953
X346457Y327953
Y325000
Y322047
X350394Y322047
Y325000
Y327953
X374410Y314173
X377461
X405512Y312992
Y316929
Y320866
Y324803
X409449
Y320866
Y316929
Y312992
X436024Y313189
X457677Y321850
X467520Y319882
X470472Y317913
X468898Y332579
T02
X328780Y163976
X338779
X348780
X343779Y173976
X333780
X323780
X284724
X274724
X264724
X269724Y163976
X279724
X289724
T03
X281988Y281929
Y286929
T04
X391732Y114173
X401732
X411732
X421732
X431732
X441732
X451732
Y132874
X441732
X431732
X421732
X411732
X401732
X391732
Y150591
X401732
X411732
X421732
X431732
X441732
X451732
Y168307
X441732
X431732
X421732
X411732
X401732
X391732
Y186024
X401732
X411732
X421732
X431732
X441732
X451732
T05
X378346Y130709
Y140709
X378346Y150709
X472441Y136811
X482441
X492441
X505748Y142717
X515748
X525748
Y119095
X515748
X505748
X492283Y113189
X482283
X472283
X472441Y160433
X482441
X492441
X505748Y166339
X515748
X525748
Y189961
X515748
X505748
X492283Y184055
X482283
X472284
X472441Y207677
X482441
X492441
X505748Y213583
X515748
X525748
Y237205
X515748
X505748
X492283Y231299
X482283
X472283
X472441Y254921
X482441
X492441
X505748Y260827
X515748
X525748
X525591Y284449
X515590
X505590
X492283Y278543
X482283
X472284
X472283Y302165
X482283
X492283
X505748Y308071
X515748
X525748
X424803Y308248
X364528Y252953
X354528
X344528
X334528
X314724Y242756
Y232756
Y222756
Y212756
Y202756
X338583Y210630
X348583
X378346Y180709
Y170709
Y160709
X304724Y202756
Y212756
Y222756
Y232756
Y242756
X272441Y242323
Y232323
Y222323
X262441
Y212323
X272441
Y202323
X262441
Y232323
Y242323
X364606Y332087
X374606
X384606
X394606
X404606
X424803Y328248
Y318248
Y338248
X472441Y325787
X482441
X492441
X505748Y331693
X515748
X525748
T06
X263779Y308661
X283579
T07
X375197Y116535
X256299Y270472
X443701Y335728
T08
X257244Y138976
X297244
X316299
X356299
M30
